<svg width="239" height="232" viewBox="0 0 239 232" fill="none" xmlns="http://www.w3.org/2000/svg">
<rect width="98.4684" height="94.3778" rx="10" transform="matrix(0.840461 -0.541872 0.587245 0.809409 75.6191 154.685)" fill="black"/>
<path d="M174.678 84.1156C176.934 82.2332 180.366 82.692 182.077 85.1046L232.097 155.643C233.591 157.75 233.228 160.612 231.258 162.256L215.32 175.554C213.064 177.436 209.631 176.978 207.921 174.565L157.901 104.027C156.407 101.92 156.77 99.0574 158.74 97.4137L174.678 84.1156Z" fill="#F32828"/>
<g filter="url(#filter0_d_99_41)">
<path d="M85.214 157.267C36.6985 97.7765 31.7553 55.3803 35.3481 41.6185C64.1403 10.5252 114.041 61.6619 133.141 86.0049" stroke="black" stroke-width="15"/>
</g>
<defs>
<filter id="filter0_d_99_41" x="22.6794" y="24.6274" width="120.673" height="144.97" filterUnits="userSpaceOnUse" color-interpolation-filters="sRGB">
<feFlood flood-opacity="0" result="BackgroundImageFix"/>
<feColorMatrix in="SourceAlpha" type="matrix" values="0 0 0 0 0 0 0 0 0 0 0 0 0 0 0 0 0 0 127 0" result="hardAlpha"/>
<feOffset dy="4"/>
<feGaussianBlur stdDeviation="2"/>
<feComposite in2="hardAlpha" operator="out"/>
<feColorMatrix type="matrix" values="0 0 0 0 0 0 0 0 0 0 0 0 0 0 0 0 0 0 0.25 0"/>
<feBlend mode="normal" in2="BackgroundImageFix" result="effect1_dropShadow_99_41"/>
<feBlend mode="normal" in="SourceGraphic" in2="effect1_dropShadow_99_41" result="shape"/>
</filter>
</defs>
</svg>
